<svg width="120" height="120" viewBox="0 0 120 120" fill="none" xmlns="http://www.w3.org/2000/svg">
<rect width="120" height="120" rx="24" fill="#61DCA3"/>
<path d="M56.8382 95.9943C51.4553 95.9943 47.1425 94.2108 43.8997 90.6438C40.657 87.0119 39.0356 82.1154 39.0356 75.9542V60.5837C39.0356 54.4225 40.657 49.5584 43.8997 45.9914C47.1425 42.3596 51.4553 40.5437 56.8382 40.5437C60.7295 40.5437 63.9398 41.5489 66.4691 43.5594C69.0633 45.505 70.6847 48.1641 71.3332 51.5365H71.5278L71.3332 39.3763V24.0057H80.9641V95.0215H71.4305V84.9042H71.3332C70.6847 88.4063 69.0633 91.1302 66.4691 93.0758C63.9398 95.0215 60.7295 95.9943 56.8382 95.9943ZM60.1458 87.6281C63.5831 87.6281 66.307 86.558 68.3175 84.4178C70.328 82.2776 71.3332 79.2618 71.3332 75.3705V61.1674C71.3332 57.2761 70.328 54.2604 68.3175 52.1202C66.307 49.98 63.5831 48.9099 60.1458 48.9099C56.5788 48.9099 53.7576 49.98 51.6823 52.1202C49.6718 54.1955 48.6665 57.1788 48.6665 61.0701V75.3705C48.6665 79.3267 49.6718 82.3748 51.6823 84.515C53.7576 86.5904 56.5788 87.6281 60.1458 87.6281Z" fill="#27272A"/>
</svg>
